# xmcd CD database file
# Copyright (C) 1997 Ti Kan
# 
# Track frame offsets:
#     150
#     15130
#     29975
#     47075
#     60257
# 
# Disc length: 989 seconds
# 
# Revision: 1
# Processed by: cddbd v1.4b41PL1 Copyright (c) Steve Scherf et al.
# Submitted via: DiscPlay 4.0.3
# 
DISCID=3403db05
DTITLE=Y'All - 5 Song Sampler
DYEAR=1900
DGENRE=
TTITLE0=Does It Feel Like Home
TTITLE1=Fancy Pants
TTITLE2=Cousin Rob
TTITLE3=The Cottonwood Tree
TTITLE4=Jackson
EXTD=\nURL: http://www.songs.com/noma/moo/home.html "At Home With Y'ALL"
EXTT0=
EXTT1=
EXTT2=
EXTT3=
EXTT4=
PLAYORDER=
